<svg version="1.0" xmlns="http://www.w3.org/2000/svg"
 width="334.000000pt" height="303.000000pt" viewBox="0 0 334.000000 303.000000"
 preserveAspectRatio="xMidYMid meet">
<g transform="translate(0.000000,303.000000) scale(0.100000,-0.100000)"
fill="#000000" stroke="none">
<path d="M1486 2725 c-371 -71 -688 -310 -859 -650 -133 -265 -154 -606 -57
-897 97 -290 318 -545 590 -683 81 -41 241 -93 338 -110 108 -19 296 -19 404
0 97 17 257 69 338 110 133 67 297 201 393 320 250 312 324 737 196 1119 -126
376 -434 662 -833 772 -117 33 -384 42 -510 19z m500 -28 c212 -54 390 -154
544 -306 103 -102 162 -183 224 -308 98 -197 131 -350 123 -573 -6 -174 -31
-283 -102 -440 -111 -246 -301 -443 -550 -567 -188 -94 -347 -128 -570 -120
-194 7 -318 38 -487 123 -171 86 -338 231 -445 386 -65 94 -138 257 -170 378
-34 130 -42 344 -19 480 44 251 147 448 333 637 160 164 388 284 620 328 125
23 371 14 499 -18z"/>
<path d="M2170 2285 c0 -30 -4 -36 -27 -41 -125 -28 -162 -46 -220 -106 -54
-56 -82 -113 -93 -185 -16 -114 19 -222 92 -289 42 -38 158 -97 216 -109 l32
-7 0 -206 0 -206 -35 34 c-21 20 -44 59 -56 92 -28 75 -48 93 -105 90 -25 -1
-62 -6 -82 -11 -20 -5 -50 -12 -66 -16 -27 -6 -28 -8 -23 -49 11 -75 46 -153
94 -206 61 -68 114 -95 246 -124 26 -6 27 -8 27 -75 l0 -69 38 -6 c53 -8 111
-1 128 16 8 8 20 36 27 63 13 54 22 61 120 96 76 27 166 110 204 187 25 51 28
68 28 157 0 124 -19 179 -87 251 -34 36 -70 61 -121 83 -151 67 -147 59 -147
236 0 150 8 175 39 124 12 -19 24 -48 27 -65 l6 -32 86 0 c141 0 179 29 152
115 -31 93 -107 169 -211 209 -37 14 -81 38 -98 55 -29 27 -36 29 -111 29
l-80 0 0 -35z m90 -19 c0 -33 1 -34 49 -40 66 -9 164 -60 201 -104 34 -41 64
-102 74 -148 l7 -31 -72 -12 c-39 -6 -73 -10 -74 -9 -1 2 -7 22 -14 46 -19 68
-75 123 -142 142 l-29 9 0 -222 0 -222 67 -18 c203 -53 299 -169 291 -352 -2
-67 -9 -92 -36 -147 -52 -107 -153 -179 -269 -194 l-53 -6 0 -74 0 -74 -40 0
-40 0 0 75 c0 71 -1 75 -23 75 -48 0 -144 32 -195 66 -65 43 -117 121 -139
209 -9 36 -13 68 -10 71 9 9 130 33 139 28 4 -3 8 -14 8 -24 0 -37 40 -125 74
-162 35 -38 73 -61 119 -72 l27 -6 0 244 0 244 -46 11 c-66 17 -176 75 -214
113 -54 53 -81 125 -81 211 0 176 99 296 274 329 66 12 67 13 67 45 0 32 1 33
40 33 39 0 40 -1 40 -34z"/>
<path d="M2127 2107 c-84 -26 -146 -108 -147 -192 0 -90 36 -147 122 -191 82
-42 78 -51 78 186 0 116 -3 210 -7 209 -5 0 -25 -6 -46 -12z m38 -335 c-3 -3
-14 3 -26 14 -68 61 -71 179 -5 247 l31 32 3 -144 c1 -79 0 -146 -3 -149z"/>
<path d="M2260 1305 l0 -235 28 6 c153 36 234 215 158 349 -20 37 -102 91
-163 110 l-23 6 0 -236z m163 135 c47 -55 53 -161 15 -235 -20 -37 -56 -71
-66 -61 -4 4 -9 64 -10 133 -5 193 8 227 61 163z"/>
<path d="M841 2209 c-35 -4 -65 -10 -68 -13 -3 -2 60 -116 140 -253 79 -136
152 -263 161 -280 l17 -33 -43 0 c-24 0 -85 -5 -135 -12 l-93 -12 0 -62 c0
-61 0 -62 31 -68 17 -3 96 -6 175 -6 l144 0 0 -39 0 -39 -117 -6 c-65 -3 -144
-8 -175 -12 l-58 -6 0 -62 0 -63 107 -6 c58 -4 137 -7 175 -7 l68 0 0 -128 0
-129 95 -6 c95 -6 136 0 151 25 5 7 11 57 14 112 8 127 7 126 159 126 126 0
156 9 180 51 12 22 12 31 2 57 -18 42 -53 52 -186 52 -118 0 -141 8 -133 47 4
24 37 31 163 32 121 1 148 11 159 57 10 39 -11 81 -46 93 -17 6 -61 11 -98 11
-81 0 -100 14 -82 62 6 16 65 123 131 237 165 282 163 300 -27 286 -110 -9
-86 17 -238 -257 -60 -109 -111 -198 -114 -198 -3 0 -53 82 -110 183 -131 231
-145 252 -176 266 -28 12 -78 13 -173 0z m251 -284 c81 -143 148 -266 148
-272 0 -25 15 -12 41 35 14 26 81 149 150 274 l124 228 84 0 c66 0 82 -3 78
-14 -3 -7 -78 -138 -166 -290 -89 -152 -161 -278 -161 -281 0 -3 65 -5 145 -5
l145 0 0 -55 0 -55 -175 0 -175 0 0 -65 0 -65 176 0 175 0 -3 -52 -3 -53 -172
-3 -173 -2 0 -135 0 -135 -75 0 -75 0 0 135 0 135 -172 2 -173 3 -3 53 -3 52
175 0 176 0 0 65 0 65 -175 0 -175 0 0 55 0 55 145 0 c80 0 145 2 145 4 0 2
-76 135 -169 296 l-170 291 82 -3 82 -3 147 -260z"/>
</g>
</svg>
